<svg xmlns="http://www.w3.org/2000/svg" width="16" height="16" viewBox="0 0 16 16" fill="none">
  <path d="M2.64621 5.64634C2.69265 5.59986 2.7478 5.56298 2.8085 5.53781C2.86919 5.51265 2.93426 5.4997 2.99997 5.4997C3.06567 5.4997 3.13074 5.51265 3.19144 5.53781C3.25213 5.56298 3.30728 5.59986 3.35372 5.64634L7.99997 10.2932L12.6462 5.64634C12.74 5.55252 12.8673 5.49982 13 5.49982C13.1326 5.49982 13.2599 5.55252 13.3537 5.64634C13.4475 5.74016 13.5002 5.86741 13.5002 6.00009C13.5002 6.13278 13.4475 6.26003 13.3537 6.35385L8.35372 11.3538C8.30728 11.4003 8.25213 11.4372 8.19144 11.4624C8.13074 11.4875 8.06567 11.5005 7.99997 11.5005C7.93426 11.5005 7.86919 11.4875 7.8085 11.4624C7.7478 11.4372 7.69265 11.4003 7.64622 11.3538L2.64621 6.35384C2.59973 6.30741 2.56285 6.25226 2.53768 6.19156C2.51252 6.13087 2.49957 6.0658 2.49957 6.00009C2.49957 5.93439 2.51252 5.86932 2.53768 5.80862C2.56285 5.74792 2.59973 5.69278 2.64621 5.64634Z" fill="#ffffff"/>
</svg>