<svg width="40" height="40" viewBox="0 0 40 40" fill="none" xmlns="http://www.w3.org/2000/svg">
<g clip-path="url(#clip0_1280_65343)">
<rect width="40" height="40" rx="20" fill="white"/>
<g filter="url(#filter0_dddd_1280_65343)">
<path d="M3.55859 20.0003C3.55859 10.9198 10.9198 3.55859 20.0003 3.55859C29.0808 3.55859 36.442 10.9198 36.442 20.0003C36.442 29.0808 29.0808 36.442 20.0003 36.442C10.9198 36.442 3.55859 29.0808 3.55859 20.0003Z" fill="url(#paint0_radial_1280_65343)"/>
<path d="M23.6694 22.4466C23.2616 22.4464 22.8578 22.5281 22.4822 22.6868C22.1065 22.8456 21.7664 23.078 21.4822 23.3705L17.9592 21.1061C18.2363 20.3955 18.2363 19.6067 17.9592 18.896L21.4822 16.6317C22.0114 17.1737 22.723 17.5 23.4791 17.5472C24.2352 17.5944 24.9818 17.3592 25.5743 16.8872C26.1668 16.4152 26.563 15.7399 26.6859 14.9924C26.8089 14.2449 26.6499 13.4784 26.2398 12.8415C25.8297 12.2045 25.1977 11.7425 24.4663 11.5451C23.7349 11.3477 22.9563 11.4288 22.2814 11.7728C21.6065 12.1169 21.0833 12.6992 20.8134 13.4071C20.5434 14.1149 20.5459 14.8977 20.8204 15.6038L17.2974 17.8682C16.8731 17.4326 16.3287 17.1335 15.7335 17.009C15.1384 16.8845 14.5197 16.9403 13.9564 17.1693C13.3932 17.3983 12.911 17.79 12.5715 18.2944C12.2321 18.7989 12.0508 19.3931 12.0508 20.0011C12.0508 20.6091 12.2321 21.2033 12.5715 21.7077C12.911 22.2122 13.3932 22.6039 13.9564 22.8329C14.5197 23.0619 15.1384 23.1177 15.7335 22.9932C16.3287 22.8687 16.8731 22.5696 17.2974 22.134L20.8204 24.3984C20.5844 25.0071 20.5495 25.6754 20.7208 26.3054C20.892 26.9354 21.2605 27.494 21.7722 27.8994C22.284 28.3049 22.9121 28.5358 23.5645 28.5584C24.217 28.5811 24.8596 28.3942 25.3982 28.0252C25.9368 27.6563 26.3431 27.1245 26.5576 26.5079C26.7722 25.8913 26.7837 25.2222 26.5904 24.5986C26.3971 23.975 26.0093 23.4296 25.4837 23.0424C24.9581 22.6551 24.3223 22.4463 23.6694 22.4466ZM23.6694 12.6646C24.0321 12.6646 24.3868 12.7722 24.6884 12.9737C24.99 13.1753 25.2251 13.4617 25.3639 13.7969C25.5027 14.132 25.539 14.5008 25.4683 14.8566C25.3975 15.2124 25.2228 15.5392 24.9663 15.7957C24.7098 16.0522 24.383 16.2269 24.0272 16.2976C23.6714 16.3684 23.3027 16.3321 22.9675 16.1933C22.6324 16.0544 22.3459 15.8194 22.1444 15.5177C21.9429 15.2161 21.8353 14.8615 21.8353 14.4988C21.8353 14.0123 22.0285 13.5458 22.3725 13.2018C22.7164 12.8579 23.183 12.6646 23.6694 12.6646ZM15.1102 21.8352C14.7475 21.8352 14.3928 21.7276 14.0912 21.5261C13.7896 21.3246 13.5545 21.0381 13.4157 20.703C13.2769 20.3678 13.2406 19.9991 13.3113 19.6433C13.3821 19.2875 13.5568 18.9607 13.8133 18.7042C14.0698 18.4477 14.3966 18.273 14.7524 18.2022C15.1082 18.1315 15.477 18.1678 15.8121 18.3066C16.1472 18.4454 16.4337 18.6805 16.6352 18.9821C16.8367 19.2837 16.9443 19.6383 16.9443 20.0011C16.9443 20.4875 16.7511 20.954 16.4071 21.298C16.0632 21.642 15.5966 21.8352 15.1102 21.8352ZM23.6694 27.3375C23.3066 27.3375 22.952 27.23 22.6504 27.0284C22.3488 26.8269 22.1137 26.5404 21.9749 26.2053C21.8361 25.8702 21.7998 25.5014 21.8705 25.1456C21.9413 24.7898 22.116 24.463 22.3725 24.2065C22.629 23.95 22.9558 23.7753 23.3116 23.7046C23.6674 23.6338 24.0361 23.6701 24.3713 23.8089C24.7064 23.9477 24.9929 24.1828 25.1944 24.4844C25.3959 24.7861 25.5035 25.1407 25.5035 25.5034C25.5035 25.9899 25.3103 26.4564 24.9663 26.8003C24.6223 27.1443 24.1558 27.3375 23.6694 27.3375Z" fill="white"/>
</g>
</g>
<defs>
<filter id="filter0_dddd_1280_65343" x="-1.94374" y="2.33585" width="43.8885" height="53.059" filterUnits="userSpaceOnUse" color-interpolation-filters="sRGB">
<feFlood flood-opacity="0" result="BackgroundImageFix"/>
<feColorMatrix in="SourceAlpha" type="matrix" values="0 0 0 0 0 0 0 0 0 0 0 0 0 0 0 0 0 0 127 0" result="hardAlpha"/>
<feOffset dy="0.611371"/>
<feGaussianBlur stdDeviation="0.917056"/>
<feColorMatrix type="matrix" values="0 0 0 0 0 0 0 0 0 0 0 0 0 0 0 0 0 0 0.1 0"/>
<feBlend mode="normal" in2="BackgroundImageFix" result="effect1_dropShadow_1280_65343"/>
<feColorMatrix in="SourceAlpha" type="matrix" values="0 0 0 0 0 0 0 0 0 0 0 0 0 0 0 0 0 0 127 0" result="hardAlpha"/>
<feOffset dy="3.05685"/>
<feGaussianBlur stdDeviation="1.52843"/>
<feColorMatrix type="matrix" values="0 0 0 0 0 0 0 0 0 0 0 0 0 0 0 0 0 0 0.09 0"/>
<feBlend mode="normal" in2="effect1_dropShadow_1280_65343" result="effect2_dropShadow_1280_65343"/>
<feColorMatrix in="SourceAlpha" type="matrix" values="0 0 0 0 0 0 0 0 0 0 0 0 0 0 0 0 0 0 127 0" result="hardAlpha"/>
<feOffset dy="7.33645"/>
<feGaussianBlur stdDeviation="2.1398"/>
<feColorMatrix type="matrix" values="0 0 0 0 0 0 0 0 0 0 0 0 0 0 0 0 0 0 0.05 0"/>
<feBlend mode="normal" in2="effect2_dropShadow_1280_65343" result="effect3_dropShadow_1280_65343"/>
<feColorMatrix in="SourceAlpha" type="matrix" values="0 0 0 0 0 0 0 0 0 0 0 0 0 0 0 0 0 0 127 0" result="hardAlpha"/>
<feOffset dy="13.4502"/>
<feGaussianBlur stdDeviation="2.75117"/>
<feColorMatrix type="matrix" values="0 0 0 0 0 0 0 0 0 0 0 0 0 0 0 0 0 0 0.01 0"/>
<feBlend mode="normal" in2="effect3_dropShadow_1280_65343" result="effect4_dropShadow_1280_65343"/>
<feBlend mode="normal" in="SourceGraphic" in2="effect4_dropShadow_1280_65343" result="shape"/>
</filter>
<radialGradient id="paint0_radial_1280_65343" cx="0" cy="0" r="1" gradientUnits="userSpaceOnUse" gradientTransform="translate(20.3058 20.0003) rotate(90.4406) scale(39.733)">
<stop stop-color="#797979"/>
<stop offset="1" stop-color="#8C8C8C"/>
</radialGradient>
<clipPath id="clip0_1280_65343">
<rect width="40" height="40" rx="20" fill="white"/>
</clipPath>
</defs>
</svg>
